<mxfile host="www.draw.io" modified="2019-11-04T08:25:46.151Z" agent="Mozilla/5.0 (Macintosh; Intel Mac OS X 10_15) AppleWebKit/605.1.15 (KHTML, like Gecko) Version/13.0.1 Safari/605.1.15" etag="4gUd_ilJ87XqaQpyWSB_" version="12.1.9" type="github" pages="1">
  <diagram id="YAyYNESXQmjCN3pU5pgw" name="Page-1">
    <mxGraphModel dx="783" dy="1837" grid="1" gridSize="10" guides="1" tooltips="1" connect="1" arrows="1" fold="1" page="1" pageScale="1" pageWidth="827" pageHeight="1169" math="0" shadow="0">
      <root>
        <mxCell id="0"/>
        <mxCell id="1" parent="0"/>
        <mxCell id="A_urT-kz64JYIyCZkuHm-15" value="Kerndomäne" style="rounded=0;whiteSpace=wrap;html=1;verticalAlign=top;" vertex="1" parent="1">
          <mxGeometry x="20" y="-170" width="730" height="710" as="geometry"/>
        </mxCell>
        <mxCell id="Ii9LpbA_kSQu4Q5Xc9ug-2" value="Attribut Verwaltung" style="rounded=0;whiteSpace=wrap;html=1;verticalAlign=top;fillColor=#e1d5e7;strokeColor=#9673a6;" parent="1" vertex="1">
          <mxGeometry x="40" y="30" width="130" height="400" as="geometry"/>
        </mxCell>
        <mxCell id="Ii9LpbA_kSQu4Q5Xc9ug-11" value="Annahme-&lt;br&gt;richtlinie" style="shape=folder;fontStyle=1;spacingTop=10;tabWidth=40;tabHeight=14;tabPosition=left;html=1;fillColor=#e1d5e7;strokeColor=#9673a6;" parent="1" vertex="1">
          <mxGeometry x="50" y="60" width="90" height="50" as="geometry"/>
        </mxCell>
        <mxCell id="Ii9LpbA_kSQu4Q5Xc9ug-12" value="Umfang" style="shape=folder;fontStyle=1;spacingTop=10;tabWidth=40;tabHeight=14;tabPosition=left;html=1;fillColor=#e1d5e7;strokeColor=#9673a6;" parent="1" vertex="1">
          <mxGeometry x="50" y="120" width="90" height="50" as="geometry"/>
        </mxCell>
        <mxCell id="Ii9LpbA_kSQu4Q5Xc9ug-13" value="Preisstruktur" style="shape=folder;fontStyle=1;spacingTop=10;tabWidth=40;tabHeight=14;tabPosition=left;html=1;fillColor=#e1d5e7;strokeColor=#9673a6;" parent="1" vertex="1">
          <mxGeometry x="50" y="180" width="90" height="50" as="geometry"/>
        </mxCell>
        <mxCell id="Ii9LpbA_kSQu4Q5Xc9ug-18" value="..." style="shape=folder;fontStyle=1;spacingTop=10;tabWidth=40;tabHeight=14;tabPosition=left;html=1;" parent="1" vertex="1">
          <mxGeometry x="50" y="240" width="90" height="50" as="geometry"/>
        </mxCell>
        <mxCell id="Ii9LpbA_kSQu4Q5Xc9ug-19" value="Leistungskatalog&lt;br&gt;konfigurieren" style="rounded=0;whiteSpace=wrap;html=1;verticalAlign=top;fillColor=#d5e8d4;strokeColor=#82b366;" parent="1" vertex="1">
          <mxGeometry x="180" y="29.99999999999998" width="130" height="400" as="geometry"/>
        </mxCell>
        <mxCell id="Ii9LpbA_kSQu4Q5Xc9ug-20" value="Leistungs-&lt;br&gt;katalog" style="shape=folder;fontStyle=1;spacingTop=10;tabWidth=40;tabHeight=14;tabPosition=left;html=1;fillColor=#d5e8d4;strokeColor=#82b366;" parent="1" vertex="1">
          <mxGeometry x="200" y="70" width="90" height="50" as="geometry"/>
        </mxCell>
        <mxCell id="Ii9LpbA_kSQu4Q5Xc9ug-21" value="Leistungs-&lt;br&gt;paket" style="shape=folder;fontStyle=1;spacingTop=10;tabWidth=40;tabHeight=14;tabPosition=left;html=1;fillColor=#d5e8d4;strokeColor=#82b366;" parent="1" vertex="1">
          <mxGeometry x="200" y="130" width="90" height="50" as="geometry"/>
        </mxCell>
        <mxCell id="Ii9LpbA_kSQu4Q5Xc9ug-22" value="Elementar-&lt;br&gt;produkt" style="shape=folder;fontStyle=1;spacingTop=10;tabWidth=40;tabHeight=14;tabPosition=left;html=1;fillColor=#d5e8d4;strokeColor=#82b366;" parent="1" vertex="1">
          <mxGeometry x="200" y="190" width="90" height="50" as="geometry"/>
        </mxCell>
        <mxCell id="Ii9LpbA_kSQu4Q5Xc9ug-23" value="Leistungsprogramm&lt;br&gt;einführen" style="rounded=0;whiteSpace=wrap;html=1;verticalAlign=top;fillColor=#dae8fc;strokeColor=#6c8ebf;" parent="1" vertex="1">
          <mxGeometry x="320" y="29.99999999999998" width="130" height="400" as="geometry"/>
        </mxCell>
        <mxCell id="Ii9LpbA_kSQu4Q5Xc9ug-24" value="Leistungs-&lt;br&gt;programm" style="shape=folder;fontStyle=1;spacingTop=10;tabWidth=40;tabHeight=14;tabPosition=left;html=1;fillColor=#dae8fc;strokeColor=#6c8ebf;" parent="1" vertex="1">
          <mxGeometry x="340" y="70" width="90" height="50" as="geometry"/>
        </mxCell>
        <mxCell id="Ii9LpbA_kSQu4Q5Xc9ug-26" value="Aufschaltung" style="shape=folder;fontStyle=1;spacingTop=10;tabWidth=40;tabHeight=14;tabPosition=left;html=1;fillColor=#dae8fc;strokeColor=#6c8ebf;" parent="1" vertex="1">
          <mxGeometry x="340" y="130" width="90" height="50" as="geometry"/>
        </mxCell>
        <mxCell id="Ii9LpbA_kSQu4Q5Xc9ug-27" value="Einzelvertrag&lt;br&gt;abschließen" style="rounded=0;whiteSpace=wrap;html=1;verticalAlign=top;fillColor=#fff2cc;strokeColor=#d6b656;" parent="1" vertex="1">
          <mxGeometry x="460" y="29.99999999999998" width="130" height="400" as="geometry"/>
        </mxCell>
        <mxCell id="Ii9LpbA_kSQu4Q5Xc9ug-28" value="Einzelvertrag" style="shape=folder;fontStyle=1;spacingTop=10;tabWidth=40;tabHeight=14;tabPosition=left;html=1;fillColor=#fff2cc;strokeColor=#d6b656;" parent="1" vertex="1">
          <mxGeometry x="480" y="70" width="90" height="50" as="geometry"/>
        </mxCell>
        <mxCell id="Ii9LpbA_kSQu4Q5Xc9ug-30" value="Domänenservice Einzelvertrag abschließen" style="rounded=0;whiteSpace=wrap;html=1;verticalAlign=top;fillColor=#fff2cc;strokeColor=#d6b656;" parent="1" vertex="1">
          <mxGeometry x="40.00000000000003" y="-30" width="550" height="50" as="geometry"/>
        </mxCell>
        <mxCell id="Ii9LpbA_kSQu4Q5Xc9ug-31" value="Domänenservice Leistungsprogramm einführen" style="rounded=0;whiteSpace=wrap;html=1;verticalAlign=top;fillColor=#dae8fc;strokeColor=#6c8ebf;" parent="1" vertex="1">
          <mxGeometry x="40.00000000000003" y="-90" width="410" height="50" as="geometry"/>
        </mxCell>
        <mxCell id="Ii9LpbA_kSQu4Q5Xc9ug-32" value="Domänenservice Leistungsprogramm konfigurieren" style="rounded=0;whiteSpace=wrap;html=1;verticalAlign=top;fillColor=#d5e8d4;strokeColor=#82b366;" parent="1" vertex="1">
          <mxGeometry x="40" y="-150" width="270" height="50" as="geometry"/>
        </mxCell>
        <mxCell id="A_urT-kz64JYIyCZkuHm-1" value="Authentifizierung und Autorisierung" style="rounded=0;whiteSpace=wrap;html=1;verticalAlign=top;fillColor=#f5f5f5;strokeColor=#666666;fontColor=#333333;" vertex="1" parent="1">
          <mxGeometry x="40" y="440" width="690" height="80" as="geometry"/>
        </mxCell>
        <mxCell id="A_urT-kz64JYIyCZkuHm-2" value="Schaden bearbeiten" style="rounded=0;whiteSpace=wrap;html=1;verticalAlign=top;fillColor=#ffe6cc;strokeColor=#d79b00;" vertex="1" parent="1">
          <mxGeometry x="600" y="14.999999999999979" width="130" height="400" as="geometry"/>
        </mxCell>
        <mxCell id="A_urT-kz64JYIyCZkuHm-4" value="" style="shape=cylinder;whiteSpace=wrap;html=1;boundedLbl=1;backgroundOutline=1;fillColor=#e1d5e7;strokeColor=#9673a6;" vertex="1" parent="1">
          <mxGeometry x="65" y="320" width="70" height="50" as="geometry"/>
        </mxCell>
        <mxCell id="A_urT-kz64JYIyCZkuHm-5" value="" style="shape=cylinder;whiteSpace=wrap;html=1;boundedLbl=1;backgroundOutline=1;fillColor=#d5e8d4;strokeColor=#82b366;" vertex="1" parent="1">
          <mxGeometry x="210" y="320" width="70" height="50" as="geometry"/>
        </mxCell>
        <mxCell id="A_urT-kz64JYIyCZkuHm-6" value="" style="shape=cylinder;whiteSpace=wrap;html=1;boundedLbl=1;backgroundOutline=1;fillColor=#dae8fc;strokeColor=#6c8ebf;" vertex="1" parent="1">
          <mxGeometry x="350" y="320" width="70" height="50" as="geometry"/>
        </mxCell>
        <mxCell id="A_urT-kz64JYIyCZkuHm-8" value="" style="shape=cylinder;whiteSpace=wrap;html=1;boundedLbl=1;backgroundOutline=1;fillColor=#fff2cc;strokeColor=#d6b656;" vertex="1" parent="1">
          <mxGeometry x="490" y="320.0000000000001" width="70" height="50" as="geometry"/>
        </mxCell>
        <mxCell id="A_urT-kz64JYIyCZkuHm-9" value="" style="shape=cylinder;whiteSpace=wrap;html=1;boundedLbl=1;backgroundOutline=1;fillColor=#ffe6cc;strokeColor=#d79b00;" vertex="1" parent="1">
          <mxGeometry x="630" y="320.0000000000001" width="70" height="50" as="geometry"/>
        </mxCell>
        <mxCell id="A_urT-kz64JYIyCZkuHm-10" value="" style="shape=cylinder;whiteSpace=wrap;html=1;boundedLbl=1;backgroundOutline=1;fillColor=#f5f5f5;strokeColor=#666666;fontColor=#333333;" vertex="1" parent="1">
          <mxGeometry x="560" y="450" width="70" height="50" as="geometry"/>
        </mxCell>
        <mxCell id="A_urT-kz64JYIyCZkuHm-16" value="Ergänzen - Integrationsdomänen aus Migrationskonzept" style="text;html=1;resizable=0;points=[];autosize=1;align=left;verticalAlign=top;spacingTop=-4;" vertex="1" parent="1">
          <mxGeometry x="49" y="557" width="310" height="20" as="geometry"/>
        </mxCell>
      </root>
    </mxGraphModel>
  </diagram>
</mxfile>
